<svg xmlns="http://www.w3.org/2000/svg" width="560" height="180"><path fill="#939598" d="M377.433 102.577v1.851l-3.876-.006v-2.211c0-1.844-.929-3.324-3.688-3.324-2.773 0-3.702 1.48-3.702 3.324v16.243c0 1.844.929 3.321 3.702 3.321 2.759 0 3.688-1.477 3.688-3.321v-2.211h3.876v1.845c0 4.074-1.662 7.382-7.563 7.382-5.916 0-7.76-3.308-7.76-7.382v-15.509c0-4.074 1.844-7.38 7.76-7.38 5.901-.002 7.563 3.304 7.563 7.378m18.454-7.015h12.558v3.698h-8.499v25.836h-4.059V95.562zm88.426 0v29.541h-4.064V99.265h-2.585v-.01c-2.767 0-4.058 1.48-4.058 3.322v4.435c0 1.848 1.291 3.328 4.058 3.328h1.48l-5.532 14.763h-4.436l4.417-11.783c-2.88-1.183-4.054-3.726-4.054-6.674v-3.691c0-4.081 2.222-7.392 8.124-7.392h6.65zm-22.519 0h4.058v29.534h-4.058v-13.1h-8.129v13.1H449.6V95.562h4.065v12.736h8.129V95.562zm-40.433 22.891c0 1.847-1.287 3.328-4.06 3.328s-4.063-1.48-4.063-3.328V102.21c0-1.844 1.291-3.324 4.063-3.324s4.06 1.48 4.06 3.324v16.243zm-4.06-23.256c-5.908 0-8.122 3.306-8.122 7.38v15.509c0 4.074 2.214 7.385 8.122 7.385 5.903 0 8.124-3.311 8.124-7.385v-15.509c0-4.074-2.22-7.38-8.124-7.38m-36.92.365h12.552v3.698h-8.492v9.038h7.018v3.698h-7.018v9.415h8.492v3.685h-12.552V95.562zm60.362 25.839h-7.998c2.103-5.536 2.127-15.133 2.127-22.146h5.871v22.146zm4.064 0v-25.84H431.19c0 9.973-.038 21.041-2.729 25.84h-2.296v9.108h3.694l.408-5.417h13.003l.427 5.417h3.694v-9.108h-2.584zm30.856-66.032h8.644v32.157h-5.627V60.601h-3.017c-2.61 0-3.412 1.435-3.412 3.215v4.416c0 1.753.784 3.182 3.318 3.215h2.309v.003h.006l-.031.064-5.608 16.006h-6.027l4.697-11.731c-2.998-1.336-4.297-4.03-4.297-7.156v-5.222c-.001-4.443 2.609-8.042 9.045-8.042M371.148 72.656h-3.011V60.601l3.011-.006c2.616.006 3.419 1.441 3.419 3.221v5.626c0 1.769-.803 3.214-3.419 3.214m0-17.287h-8.638v32.157h5.627v-9.645h3.011c6.436 0 9.046-3.597 9.046-8.042V63.41c0-4.442-2.611-8.041-9.046-8.041m87.829 0h4.423v32.157h-5.626V73.058l.4-6.435-9.641 20.903h-4.422V55.369h5.626v14.474l-.408 6.423 9.648-20.897zm-67.122 27.337c-2.61 0-3.613-1.445-3.613-3.215v-16.08c0-1.78 1.003-3.214 3.613-3.214 2.615 0 3.619 1.435 3.619 3.214v16.08c0 1.77-1.004 3.215-3.619 3.215m0-27.738c-6.43 0-9.24 3.604-9.24 8.035v16.886c0 4.442 2.811 8.041 9.24 8.041 6.436 0 9.244-3.599 9.244-8.041V63.003c0-4.436-2.808-8.035-9.244-8.035m49.446 8.038v2.81h-5.231v-2.405c0-1.78-.603-3.214-3.211-3.214-2.616 0-3.218 1.435-3.218 3.214v16.08c0 1.77.602 3.215 3.218 3.215 2.608 0 3.211-1.445 3.211-3.215V77.07l5.231.003v2.817c-.007 4.442-2.015 8.041-8.442 8.041-6.437 0-8.845-3.599-8.851-8.041V63.003c0-4.436 2.414-8.039 8.851-8.039 6.428 0 8.442 3.608 8.442 8.042m-19.695 0v2.81h-5.231v-2.405c0-1.78-.604-3.214-3.219-3.214s-3.211 1.435-3.211 3.214v16.08c0 1.77.596 3.215 3.211 3.215s3.219-1.445 3.219-3.215V77.07l5.231.003v2.817c0 4.442-2.014 8.041-8.45 8.041-6.43 0-8.844-3.599-8.844-8.041V63.003c0-4.436 2.414-8.039 8.844-8.039 6.436 0 8.45 3.608 8.45 8.042m-82.06-22.7h3.213v104.866h-3.213z"/><path fill="#003767" d="M103.003 55.746a.211.211 0 0 1-.018.026c-.843 1.266-1.37 2.649-1.489 3.998a6.885 6.885 0 0 0 .775 3.82c1.204 2.341 3.66 4.122 6.383 5.253 2.182.892 4.545 1.407 6.947 1.615a43.375 43.375 0 0 0-12.598-14.712m5.773 53.79c-11.66-1.542-23.146-4.93-33.487-10.719-5.158-2.895-10.022-6.411-14.227-10.679-4.188-4.264-7.731-9.335-9.818-15.075a32.52 32.52 0 0 1-1.705-15.577c-9.361 7.915-15.316 19.739-15.316 32.958 0 23.828 19.313 43.142 43.142 43.142 16.706 0 31.185-9.503 38.35-23.396a110.64 110.64 0 0 1-6.939-.654M78.052 77.829c2.948 2.745 6.393 5.013 10.067 6.849 7.361 3.656 15.571 5.635 23.818 6.282 2.846.217 5.708.266 8.552.172.003-.23.016-.457.016-.687 0-.245-.013-.484-.016-.729a64.143 64.143 0 0 1-6.503-.61c-6.472-.99-12.834-2.984-18.556-6.328-2.85-1.676-5.544-3.696-7.879-6.147-2.316-2.45-4.287-5.37-5.418-8.67-1.156-3.292-1.366-6.931-.566-10.281.791-3.362 2.521-6.359 4.676-8.799.165-.193.358-.357.524-.539a43.14 43.14 0 0 0-9.403-1.042c-1.256 0-2.49.067-3.71.171-1.775 2.838-3.083 5.921-3.648 9.11a20.746 20.746 0 0 0 1.187 11.603c1.466 3.649 3.908 6.902 6.859 9.645m32.956 21.445c-9.095-1.301-18.048-4.062-26.085-8.717-4.006-2.332-7.777-5.158-11.015-8.585-3.23-3.417-5.929-7.49-7.438-12.078-1.526-4.567-1.731-9.6-.557-14.198.671-2.711 1.764-5.246 3.138-7.583a42.833 42.833 0 0 0-14.575 5.765c-.16.662-.298 1.333-.408 2.004-.864 5.194-.188 10.554 1.86 15.355 2.023 4.82 5.305 9.092 9.214 12.696 3.918 3.613 8.459 6.571 13.286 8.973 9.674 4.808 20.43 7.417 31.229 8.308a104.8 104.8 0 0 0 9.408.301c.129-.483.243-.982.356-1.477a89.968 89.968 0 0 1-8.413-.764M85.683 58.476c.362-2.636 1.505-5.219 3.166-7.496.438-.595.906-1.168 1.4-1.725a42.925 42.925 0 0 1 9.972 4.603c-1.266 1.4-2.312 3.132-2.833 5.126-.545 2.062-.475 4.349.196 6.43.665 2.084 1.842 3.923 3.227 5.462 1.397 1.546 3 2.818 4.704 3.883 3.415 2.116 7.198 3.427 11.082 4.13.803.145 1.618.245 2.424.334.145.53.279 1.073.398 1.612a50.337 50.337 0 0 1-4.548-.058c-5.623-.327-11.24-1.551-16.292-3.912-5.013-2.344-9.588-5.929-11.771-10.72a13.883 13.883 0 0 1-1.125-7.669m63.375 10.034h-4.447v-7.582h4.447c2.727 0 3.861.908 3.861 3.722 0 2.543-.954 3.86-3.861 3.86m0-14.394h-12.715v31.782h8.268V75.323h4.949c7.309 0 11.442-4.224 11.442-10.99 0-7.038-4.133-10.217-11.944-10.217m23.752 18.21v-18.21h-8.174v31.785h8.174l9.584-18.525v18.525h8.17V54.116h-8.215zm32.246.996l3.086-10.53L211 73.322h-5.944zm7.991-19.206h-9.625l-10.357 31.782h8.265l1.681-5.765h9.808l1.586 5.765h8.536l-9.894-31.782z"/><path fill="#56A0D3" d="M153.99 108.74h-11.905V96.577h-5.691v30.197h5.691V113.83h11.905v12.944h5.694V96.577h-5.694zm28.089 6.514c0 4.702-2.03 6.771-6.604 6.771-4.656 0-6.641-1.938-6.641-6.771v-7.16c0-4.874 2.2-6.815 6.641-6.815 4.574 0 6.604 1.941 6.604 6.815v7.16zm-6.603-19.066c-7.981 0-12.335 4.313-12.335 11.906v7.16c0 7.292 4.057 11.861 12.335 11.861 8.237 0 12.294-4.569 12.294-11.861v-7.16c0-7.593-4.355-11.906-12.294-11.906m27.223 25.624h-5.824v-7.85h5.824c3.194 0 4.833.774 4.833 3.751 0 3.233-1.514 4.099-4.833 4.099m-5.824-20.276h5.092c3.365 0 4.916.734 4.916 3.582 0 2.675-.989 3.924-4.529 3.924h-5.479v-7.506zm10.785 9.751v-.132c3.365-.777 4.83-3.619 4.83-6.599 0-5.087-3.322-7.979-9.92-7.979h-11.344v30.197h11.691c7.199 0 10.222-3.369 10.222-9.146 0-3.707-2.203-6.041-5.479-6.341m27.653 3.967c0 4.702-2.031 6.771-6.601 6.771-4.657 0-6.641-1.938-6.641-6.771v-7.16c0-4.874 2.195-6.815 6.641-6.815 4.57 0 6.601 1.941 6.601 6.815v7.16zm-6.601-19.066c-7.983 0-12.338 4.313-12.338 11.906v7.16c0 7.292 4.059 11.861 12.338 11.861 8.238 0 12.291-4.569 12.291-11.861v-7.16c0-7.593-4.354-11.906-12.291-11.906m27.611 5.091c3.97 0 6.039 1.552 6.258 5.861h5.689c-.257-7.113-4.221-10.952-11.948-10.952-7.982 0-12.076 4.184-12.076 11.733v7.502c0 7.376 3.962 11.736 12.032 11.736 7.771 0 11.691-3.794 11.992-10.613h-5.689c-.307 4.143-2.288 5.522-6.303 5.522-4.228 0-6.341-1.853-6.341-6.646v-7.502c.001-4.876 2.202-6.641 6.386-6.641m12.381.388h9.321v25.104h5.689v-25.104h9.409v-5.09h-24.419zm44.824-5.09l-11.906 21.309V96.577h-5.695v30.194h5.695l11.949-21.268v21.268h5.652V96.577z"/></svg>